<?xml version="1.0" encoding="UTF-8"?><svg id="_レイヤー_2" xmlns="http://www.w3.org/2000/svg" viewBox="0 0 313.12 148.73"><defs><style>.cls-1{fill:none;stroke-miterlimit:2.61;stroke-width:.66px;}.cls-1,.cls-2{stroke:#2d3487;}.cls-2{font-family:CaflischScriptPro-Regular, 'Caflisch Script Pro';font-size:58.38px;letter-spacing:.05em;stroke-miterlimit:10;stroke-width:.33px;}.cls-2,.cls-3{fill:#2d3487;}.cls-3{stroke-width:0px;}</style></defs><g id="_デザイン"><text class="cls-2" transform="translate(43.65 90.98)"><tspan x="0" y="0">Profile</tspan></text><path class="cls-1" d="M206.9,121.05c.06-.83,6.93-9.87,9.58-13.05,2.25-2.71,10.14-4.27,13.84-6.01,4.37-2.06-3.59-3.03-3.67-2.66-.2.94,3.69,1.21,4.76,1.07,1.07-.13,2.68-.34,6.3-3.08,2.57-1.95,3.28-2.59,3.58-3.03.86-1.31-2.3-2.06-3.78-2.28-2.77-.41,3.39,2.15,4.5.41.94-1.48,3.42-4.69,4.16-6.24.74-1.54-5.57-1.34-5.57-.54,0,.74,5.74-.16,6.89-1.85.68-1.01,1.42-2.14,1.42-2.14,0,0,1.59-1.94,2.38-2.94.92-1.15-.94-.9-2.4-.54-4.2,1.01,1.87.78,3.3-.9.81-.96,2.44-2.88,3.13-4.14,1.49-2.69-4.78-1.13-4.78-.33,0,1.01,5.1-.44,6.64-1.74,1.54-1.3,11.8-11,12.14-11.73.34-.74-5.43-2.08-5.63-.8-.2,1.27,5.3.34,6.44-.54.94-.72,4.93-3.9,6.57-5.59,2.34-2.42-3.33-2.56-3.28-2.05.07.8,4.43,1.14,5.03.4.17-.21.59-.53,1.12-.92,1.02-.74,2.45-1.71,3.35-2.55,2.86-2.66-6.01-1.32-6.01-.83,0,.74,6.24.13,7.71-1.34,1.24-1.24,2.85-2.52,3.7-3.42,1.79-1.9-6.07-1.97-6.31-1.21-.27.85,6.72.32,7.7-.43l1.62-1.24s4.62-5.25,5.93-6.83c1.32-1.59-4.26-1.76-4.36-1.12-.1.69,4.24.91,5.3-.22.53-.57,1.57-1.61,1.78-2.5.29-1.23-6.57-1.6-4.37-.92,1.19.37,4.19,1.03,5.48-.37,1.25-1.36,4.26-4.57,4.52-4.95,1.42-2.05,4.81-4.58,1.58-4.19-2,.24-5.35,1-5.28,1.56.1.8,6.84-1.31,7.21-2.21.86-2.1,4.55-4.92.83-4.63-1.12.09-2.58.36-3.62.62-3.97,1.02,2.86,0,3.58-.19,4.19-1.05,3.43-4.61.38-4.58-1.31.01-2.74.36-3.01.74-.5.7,3.15-.5,4.29-.77,1.14-.27,1.07-.37.74-1.41-.89-2.76-.58-3.82-2.85-2.13-1.73,1.28-4.39,3.5-5.29,4.01-1.31.74-13.09,10.4-21.42,18.81-25.99,26.22-43.7,45.55-63.7,76.65-3.08,4.79-4.89-.4-4.25-3.58.93-4.59,3.03-14.15,3.44-18.29.54-5.36,5.16-13.01,6.84-14.21,2.78-2,2.86,16.72,1.44,8.96-.57-3.11-.66-9.31,1.32-11.86,1.97-2.53,6.14-7.79,8.14-9.72,2.88-2.77,2.2,5.44,1.9,5.44-.81,0-.23-6.2.96-7.94.52-.76,1.22-1.79,1.79-2.56,2.34-3.16,1.09,5.12.94,5.17-.67.2-.07-6.1.47-6.97.54-.87,1.34-1.94,2.35-2.61s1.21,5.9.54,6.03c-.67.13-.34-5.3.13-6.17.47-.87,1.14-2.75,3.35-4.89,2.21-2.15,1.48,9.99.94,10.06-.54.07.2-9.99.47-10.39.27-.4.8-2.35,1.88-3.15,1.07-.8,1.21,11.13.34,11.47-.8.31.42-11.23,1.45-13.55.32-.72.88-1.72,2.1-2.54,2.66-1.79-.36,16.3.09,7.62.16-3.05.73-8.01,1.44-9.12.61-.95,1.87-2.69,3.23-3.46,2.24-1.27-1.52,13.03-.54,6.12.33-2.31,1.03-5.94,1.71-6.71,1.35-1.53,5.95-6.68,7.24-7.42,2.48-1.43.55,12.95.22,5.36-.1-2.36.25-5.94,1.59-7.34.65-.69,1.54-1.53,2.42-2.02,3.56-1.96.05,9.73-.17,9.7-.48-.05,1.47-9.66,3.13-11.46.57-.62,1.4-1.35,2.57-1.82,2.65-1.08-3.63,16.69-1.36,6.87.68-2.96,1.95-7.11,2.97-7.87,1.47-1.09,5.53-4.08,7.56-4.83.29-.11.54-.17.73-.17,1.81-.03.13,3.29-.1,3.25-.19-.03.36-2.21.72-3.18.26-.7.86-1.45,1.68-1.38,1.02.08-.13,3.4-.4,3.27-.22-.11.55-2.44.98-3.43.38-.87,1.99-1.48,2.13-.64.18,1.1-.19,4.36-.69,4.27-.46-.08.29-2.74.82-4.1.61-1.55,4.41-3.36,4.9-1.92.49,1.42-1.35,5.56-1.63,5.45-.96-.38,3.89-10.13,5.62-6.93.54,1-.26,3.94-.66,3.71-.47-.27.87-3.42,1.24-3.79,1.12-1.12,2-.25,1.92,1.12-.09,1.55-.89,3.84-1.45,3.84-.8,0,.34-1.21,1.07-3.55,1.06-3.38,5.47-1.19,4.37,1.12-1.08,2.27-5.92,5.35-7.48,6.4-2.63,1.78-8.8,7.09-26.06,23.12-23.31,21.67-47.4,54.35-66.55,81.17,0,0-2.53,3.28-3.63,5.25,0,0-.77,2.38-.27,2.68s2-.99,2-.99Z"/><path class="cls-3" d="M6.8,109.01c-5.51,2.7-7.72,9.51-6.45,15.25,1.51,6.86,7.13,12.04,12.83,15.65,12.09,7.64,26.97,9.12,40.95,8.76,16.46-.41,32.98-2.7,49.06-6.18s31.97-9.01,47.92-13.77c15.57-4.65,31.78-8.47,48.14-7.06,2.02.17,4.03.43,6.03.77,1.7.29,2.43-2.32.72-2.61-15.48-2.62-31.09-.32-46.14,3.62s-30.63,9.73-46.19,13.77c-15.82,4.11-31.99,6.84-48.29,8.13-13.94,1.1-28.56,1.47-41.89-3.39-6.27-2.29-12.52-5.89-16.82-11.09-3.87-4.68-5.7-11.63-1.77-16.87.86-1.15,1.97-2.02,3.26-2.65,1.56-.76.19-3.1-1.36-2.33h0Z"/></g></svg>